<mxfile host="app.diagrams.net" modified="2024-05-16T08:11:13.882Z" agent="Mozilla/5.0 (Windows NT 10.0; Win64; x64) AppleWebKit/537.36 (KHTML, like Gecko) Chrome/124.0.0.0 Safari/537.36 Edg/124.0.0.0" version="24.2.5" etag="j4nUM5HR7GPqM12AL628" type="github">
  <diagram name="Page-1" id="WFXKtVprWmaF4HZ2qk5n">
    <mxGraphModel>
      <root>
        <mxCell id="0" />
        <mxCell id="1" parent="0" />
      </root>
    </mxGraphModel>
  </diagram>
</mxfile>
